REM DIRINDEX 1\2,1\3,1\4,1\5
REM DIRNAME "folder01","folder02","folder03","folder04","folder05"
TITLE ""
FILE "P1Q_j_1801-1813.mp3" MP3
  TRACK 01 AUDIO
    TITLE "0:"
    INDEX 01 00:00:00
  TRACK 02 AUDIO
    TITLE "2:cjc173_0604"
    INDEX 01 00:00:10
  TRACK 03 AUDIO
    TITLE "0:"
    INDEX 01 00:02:15
  TRACK 04 AUDIO
    TITLE "3:cjc173_0605"
    INDEX 01 00:02:62
  TRACK 05 AUDIO
    TITLE "0:"
    INDEX 01 00:04:22
  TRACK 06 AUDIO
    TITLE "4:cjc173_0606"
    INDEX 01 00:04:41
  TRACK 07 AUDIO
    TITLE "0:"
    INDEX 01 00:08:35
  TRACK 08 AUDIO
    TITLE "5:cjc173_0607"
    INDEX 01 00:08:55
  TRACK 09 AUDIO
    TITLE "0:"
    INDEX 01 00:13:23
  TRACK 10 AUDIO
    TITLE "3:cjc173_0608"
    INDEX 01 00:13:68
  TRACK 11 AUDIO
    TITLE "0:"
    INDEX 01 00:15:27
  TRACK 12 AUDIO
    TITLE "4:cjc173_0609"
    INDEX 01 00:15:43
  TRACK 13 AUDIO
    TITLE "0:"
    INDEX 01 00:20:15
  TRACK 14 AUDIO
    TITLE "5:cjc173_0610"
    INDEX 01 00:20:37
  TRACK 15 AUDIO
    TITLE "0:"
    INDEX 01 00:25:22
  TRACK 16 AUDIO
    TITLE "3:cjc173_0611"
    INDEX 01 00:25:67
  TRACK 17 AUDIO
    TITLE "0:"
    INDEX 01 00:27:21
  TRACK 18 AUDIO
    TITLE "4:cjc173_0612"
    INDEX 01 00:27:44
  TRACK 19 AUDIO
    TITLE "0:"
    INDEX 01 00:32:44
  TRACK 20 AUDIO
    TITLE "5:cjc173_0613"
    INDEX 01 00:32:65
  TRACK 21 AUDIO
    TITLE "0:"
    INDEX 01 00:38:30
  TRACK 22 AUDIO
    TITLE "3:cjc173_0614"
    INDEX 01 00:39:01
  TRACK 23 AUDIO
    TITLE "0:"
    INDEX 01 00:40:37
  TRACK 24 AUDIO
    TITLE "4:cjc173_0615"
    INDEX 01 00:40:57
  TRACK 25 AUDIO
    TITLE "0:"
    INDEX 01 00:42:64
  TRACK 26 AUDIO
    TITLE "5:cjc173_0616"
    INDEX 01 00:43:08
  TRACK 27 AUDIO
    TITLE "0:"
    INDEX 01 00:47:12
  TRACK 28 AUDIO
    TITLE "3:cjc173_0617"
    INDEX 01 00:47:57
  TRACK 29 AUDIO
    TITLE "0:"
    INDEX 01 00:49:07
  TRACK 30 AUDIO
    TITLE "4:cjc173_0618"
    INDEX 01 00:49:26
  TRACK 31 AUDIO
    TITLE "0:"
    INDEX 01 00:55:21
  TRACK 32 AUDIO
    TITLE "5:cjc173_0619"
    INDEX 01 00:55:41
  TRACK 33 AUDIO
    TITLE "0:"
    INDEX 01 00:58:68
  TRACK 34 AUDIO
    TITLE "3:cjc173_0620"
    INDEX 01 00:59:39
  TRACK 35 AUDIO
    TITLE "0:"
    INDEX 01 01:01:63
  TRACK 36 AUDIO
    TITLE "4:cjc173_0621"
    INDEX 01 01:02:07
  TRACK 37 AUDIO
    TITLE "0:"
    INDEX 01 01:04:44
  TRACK 38 AUDIO
    TITLE "5:cjc173_0622"
    INDEX 01 01:04:63
  TRACK 39 AUDIO
    TITLE "0:"
    INDEX 01 01:10:21
  TRACK 40 AUDIO
    TITLE "3:cjc173_0623"
    INDEX 01 01:10:66
  TRACK 41 AUDIO
    TITLE "0:"
    INDEX 01 01:12:24
  TRACK 42 AUDIO
    TITLE "4:cjc173_0624"
    INDEX 01 01:12:45
  TRACK 43 AUDIO
    TITLE "0:"
    INDEX 01 01:14:52
  TRACK 44 AUDIO
    TITLE "5:cjc173_0625"
    INDEX 01 01:14:71
  TRACK 45 AUDIO
    TITLE "0:"
    INDEX 01 01:19:67
  TRACK 46 AUDIO
    TITLE "3:cjc173_0626"
    INDEX 01 01:20:37
  TRACK 47 AUDIO
    TITLE "0:"
    INDEX 01 01:22:42
  TRACK 48 AUDIO
    TITLE "4:cjc173_0627"
    INDEX 01 01:22:63
  TRACK 49 AUDIO
    TITLE "0:"
    INDEX 01 01:27:05
  TRACK 50 AUDIO
    TITLE "5:cjc173_0628"
    INDEX 01 01:27:25
  TRACK 51 AUDIO
    TITLE "0:"
    INDEX 01 01:32:36
  TRACK 52 AUDIO
    TITLE "3:cjc173_0629"
    INDEX 01 01:33:06
  TRACK 53 AUDIO
    TITLE "0:"
    INDEX 01 01:34:58
  TRACK 54 AUDIO
    TITLE "4:cjc173_0630"
    INDEX 01 01:35:03
  TRACK 55 AUDIO
    TITLE "0:"
    INDEX 01 01:39:01
  TRACK 56 AUDIO
    TITLE "5:cjc173_0631"
    INDEX 01 01:39:18
  TRACK 57 AUDIO
    TITLE "0:"
    INDEX 01 01:44:18
  TRACK 58 AUDIO
    TITLE "3:cjc173_0632"
    INDEX 01 01:44:63
  TRACK 59 AUDIO
    TITLE "0:"
    INDEX 01 01:46:18
  TRACK 60 AUDIO
    TITLE "4:cjc173_0633"
    INDEX 01 01:46:38
  TRACK 61 AUDIO
    TITLE "0:"
    INDEX 01 01:51:27
  TRACK 62 AUDIO
    TITLE "5:cjc173_0634"
    INDEX 01 01:51:45
  TRACK 63 AUDIO
    TITLE "0:"
    INDEX 01 01:56:50
  TRACK 64 AUDIO
    TITLE "3:cjc173_0635"
    INDEX 01 01:57:20
  TRACK 65 AUDIO
    TITLE "0:"
    INDEX 01 01:58:41
  TRACK 66 AUDIO
    TITLE "4:cjc173_0636"
    INDEX 01 01:58:65
  TRACK 67 AUDIO
    TITLE "0:"
    INDEX 01 02:03:48
  TRACK 68 AUDIO
    TITLE "5:cjc173_0637"
    INDEX 01 02:03:70
  TRACK 69 AUDIO
    TITLE "0:"
    INDEX 01 02:07:58
  TRACK 70 AUDIO
    TITLE "3:cjc173_0638"
    INDEX 01 02:08:28
  TRACK 71 AUDIO
    TITLE "0:"
    INDEX 01 02:09:67
  TRACK 72 AUDIO
    TITLE "4:cjc173_0639"
    INDEX 01 02:10:15
  TRACK 73 AUDIO
    TITLE "0:"
    INDEX 01 02:14:19
  TRACK 74 AUDIO
    TITLE "5:cjc173_0640"
    INDEX 01 02:14:36
  TRACK 75 AUDIO
    TITLE "0:"
    INDEX 01 02:19:20
  TRACK 76 AUDIO
    TITLE "3:cjc173_0641"
    INDEX 01 02:19:65
  TRACK 77 AUDIO
    TITLE "0:"
    INDEX 01 02:21:15
  TRACK 78 AUDIO
    TITLE "4:cjc173_0642"
    INDEX 01 02:21:40
  TRACK 79 AUDIO
    TITLE "0:"
    INDEX 01 02:25:68
  TRACK 80 AUDIO
    TITLE "5:cjc173_0643"
    INDEX 01 02:26:12
  TRACK 81 AUDIO
    TITLE "0:"
    INDEX 01 02:31:19
